<?xml version="1.0" standalone="no"?>
<!DOCTYPE svg PUBLIC "-//W3C//DTD SVG 20010904//EN"
 "http://www.w3.org/TR/2001/REC-SVG-20010904/DTD/svg10.dtd">
<svg version="1.0" xmlns="http://www.w3.org/2000/svg"
 width="1024.000000pt" height="1024.000000pt" viewBox="0 0 1024.000000 1024.000000"
 preserveAspectRatio="xMidYMid meet">
<metadata>
Created by potrace 1.16, written by Peter Selinger 2001-2019
</metadata>
<g transform="translate(0.000000,1024.000000) scale(0.100000,-0.100000)"
fill="#000000" stroke="none">
<path d="M4770 10234 c-478 -44 -820 -109 -1200 -230 -730 -233 -1401 -625
-1940 -1132 -483 -454 -824 -915 -1110 -1497 -265 -541 -423 -1084 -496 -1705
-25 -213 -30 -751 -10 -980 60 -663 222 -1247 506 -1825 267 -543 575 -970
1007 -1396 130 -129 173 -169 283 -263 307 -262 696 -514 1075 -697 533 -257
1073 -412 1690 -486 215 -25 873 -25 1090 0 646 76 1210 244 1760 522 546 276
958 581 1399 1033 349 359 657 800 891 1277 269 547 426 1086 502 1720 26 216
26 874 0 1090 -87 723 -287 1350 -627 1961 -351 631 -865 1210 -1453 1638
-721 524 -1558 847 -2467 952 -129 15 -787 28 -900 18z m1580 -1723 c50 -15
1475 -321 1496 -321 2 0 3 -240 2 -532 l-3 -533 -70 -48 c-296 -205 -701 -301
-1065 -253 -193 26 -421 91 -553 158 -37 18 -41 18 -90 2 -29 -9 -55 -18 -59
-20 -3 -2 47 -56 112 -120 65 -64 126 -131 134 -149 20 -42 20 -107 0 -148 -9
-18 -104 -121 -212 -229 l-197 -198 -163 0 c-94 0 -162 4 -160 9 2 5 108 118
237 251 l234 241 -114 115 c-63 63 -123 117 -134 120 -11 3 -136 -36 -285 -89
-146 -52 -296 -104 -335 -117 -38 -12 -110 -40 -160 -63 -77 -35 -98 -40 -160
-40 -120 0 -222 60 -281 165 -26 47 -29 62 -29 138 0 73 4 92 27 136 47 89 91
119 360 237 135 59 267 117 293 128 l48 21 -209 210 c-115 115 -235 232 -266
259 l-56 50 -650 -662 -649 -662 218 -215 c121 -118 219 -219 219 -223 0 -5
-75 -9 -167 -9 l-168 0 -179 178 c-99 98 -183 187 -187 197 -14 37 -10 119 9
152 28 51 1452 1494 1489 1509 42 18 95 18 136 0 18 -7 184 -163 369 -345
l337 -331 213 93 c182 80 216 99 236 128 46 67 9 149 -73 165 -28 5 -54 -3
-147 -46 -62 -29 -143 -66 -181 -82 l-67 -31 -177 174 c-97 96 -176 176 -176
179 1 8 631 369 691 396 174 79 408 102 562 55z m570 -3121 l0 -450 -2265 0
-2265 0 0 443 c0 244 3 447 7 450 3 4 1023 7 2265 7 l2258 0 0 -450z m-192
-2282 l-3 -1403 -2067 -3 -2068 -2 0 1405 0 1405 2070 0 2070 0 -2 -1402z"/>
<path d="M4521 3775 c-74 -150 -137 -278 -141 -284 -3 -6 -145 -31 -315 -56
-170 -25 -310 -47 -312 -49 -2 -2 98 -102 222 -223 l226 -220 -54 -314 c-30
-173 -54 -315 -53 -315 0 -1 128 65 283 147 l281 149 277 -146 c152 -80 279
-144 282 -141 2 3 -19 144 -48 313 l-53 308 229 223 c127 122 227 223 223 223
-4 0 -145 20 -314 45 -168 25 -307 45 -310 45 -2 0 -67 128 -143 285 -77 157
-141 285 -143 285 -2 -1 -63 -124 -137 -275z"/>
</g>
</svg>
